<?xml version="1.0" encoding="UTF-8"?>
<!--
The viewBox is set such that the canvas coordinates span from (-10, -10) to (210, 110).
The area from (0, 0) to (200, 100) is used for the plot, the remaining area is for margins and axes.
Warning: in SVG the coordinates start from the top-left corner,
but you can use transform="scale(1, -1)" to invert that.

	https://developer.mozilla.org/en-US/docs/Web/SVG/Attribute/viewBox
-->
<svg version="1.1" viewBox="-10 -10 220 120" width="220" height="120" xmlns="http://www.w3.org/2000/svg" >
	<!--
		We can use stylesheets inside SVG too.
		Likewise, SVG elements are affected by the main site's CSS.
		https://developer.mozilla.org/en-US/docs/Web/SVG/Tutorial/SVG_and_CSS
	-->
	<style>
		:root {
			--text-color: rgb(214, 100, 40);
		}
		.axis {
			stroke-width: 1;
			stroke: var(--text-color);
		}
		text {
			fill: rgb(200, 200, 200);
			font-size: 8px;
			text-anchor: middle;
		}
		.orange {
			fill: var(--text-color);
		}
	</style>

	<!--
	To draw the main plot, we use a path. Paths are very flexible, read about them here:
		https://developer.mozilla.org/en-US/docs/Web/SVG/Tutorial/Paths
	This path consists of line segments (L).
	-->
	<path
		d="M 0 100 L 0 90 L 25 40 L 50 35 L 75 45 L 100 70 L 125 90 L 150 65 L 175 40 L 200 35 V 100 Z"
		fill="rgb(59, 119, 59)"
		stroke="rgb(125, 249, 90)"
		stroke-width="0.75"
	/>

	<!-- Axis lines, the color and thickness is set by the stylesheet
		https://developer.mozilla.org/en-US/docs/Web/SVG/Element/line
	-->
	<line class="axis" x1="-5" y1="100" x2="205" y2="100"/>
	<line class="axis" x1="0" y1="105" x2="0" y2="-5"/>

	<!--
	A different plot, consisting of red circles.
	We set the color for all of them using a group
	https://developer.mozilla.org/en-US/docs/Web/SVG/Element/g
	-->
	<g id="red-dots-plot" fill="yellow">
		<!-- https://developer.mozilla.org/en-US/docs/Web/SVG/Element/circle -->
		<circle cx="0" cy="75" r="1" />
		<circle cx="25" cy="65" r="1" />
		<circle cx="50" cy="60" r="1" />
		<circle cx="75" cy="55" r="1" />
		<circle cx="100" cy="47" r="1" />
		<circle cx="125" cy="40" r="1" />
		<circle cx="150" cy="30" r="1" />
		<circle cx="175" cy="10" r="1" />
		<circle cx="200" cy="20" r="1" />
	</g>


	<line stroke-width="0.75" stroke="var(--text-color)" x1="50" y1="45" x2="70" y2="25" />
	<text x="75" y="20" class="orange">important event!</text>

	<text x="50%" y="110" class="orange">time</text>

	<!-- The group positions the text by the translate transform, the text element inside is rotated around the point -->
	<g transform="translate(-4, 50)">
		<text transform="rotate(-90)" class="orange">population</text>
	</g>
</svg>
